<?xml version="1.0" encoding="UTF-8"?>
<svg xmlns="http://www.w3.org/2000/svg" xmlns:xlink="http://www.w3.org/1999/xlink" viewBox="0 0 566.93 566.93">
  <defs>
    <style>
      .cls-1 {
        fill: none;
      }

      .cls-1, .cls-2, .cls-3, .cls-4, .cls-5, .cls-6, .cls-7, .cls-8, .cls-9, .cls-10, .cls-11, .cls-12, .cls-13, .cls-14, .cls-15, .cls-16, .cls-17, .cls-18, .cls-19, .cls-20, .cls-21, .cls-22, .cls-23, .cls-24 {
        stroke-width: 0px;
      }

      .cls-2 {
        fill: url(#volumen-16);
      }

      .cls-2, .cls-3, .cls-4, .cls-5, .cls-6, .cls-7, .cls-8, .cls-9, .cls-10, .cls-11, .cls-12, .cls-13, .cls-14, .cls-15, .cls-16, .cls-24 {
        mix-blend-mode: multiply;
      }

      .cls-3 {
        fill: url(#volumen-15);
      }

      .cls-4 {
        fill: url(#volumen-11);
      }

      .cls-5 {
        fill: url(#volumen-10);
      }

      .cls-6 {
        fill: url(#volumen-13);
      }

      .cls-7 {
        fill: url(#volumen-14);
      }

      .cls-8 {
        fill: url(#volumen-12);
      }

      .cls-9 {
        fill: url(#volumen-4);
      }

      .cls-10 {
        fill: url(#volumen-3);
      }

      .cls-11 {
        fill: url(#volumen-2);
      }

      .cls-12 {
        fill: url(#volumen-5);
      }

      .cls-13 {
        fill: url(#volumen-8);
      }

      .cls-14 {
        fill: url(#volumen-6);
      }

      .cls-15 {
        fill: url(#volumen-7);
      }

      .cls-16 {
        fill: url(#volumen-9);
      }

      .cls-25 {
        isolation: isolate;
      }

      .cls-17 {
        fill: #5068af;
      }

      .cls-18 {
        fill: #5c4eae;
      }

      .cls-19 {
        fill: #492b4d;
      }

      .cls-20 {
        fill: #8a51ae;
      }

      .cls-21 {
        fill: #27263e;
      }

      .cls-22 {
        fill: #414042;
      }

      .cls-23 {
        fill: #fff;
      }

      .cls-24 {
        fill: url(#volumen);
      }
    </style>
    <linearGradient id="volumen" x1="270.69" y1="210.31" x2="288.46" y2="189.88" gradientUnits="userSpaceOnUse">
      <stop offset=".36" stop-color="#41404d" stop-opacity="0"/>
      <stop offset=".9" stop-color="#41404d"/>
    </linearGradient>
    <linearGradient id="volumen-2" data-name="volumen" x1="-7424.8" y1="71.1" x2="-7407.02" y2="50.66" gradientTransform="translate(-7130.87 234.19) rotate(-180)" xlink:href="#volumen"/>
    <linearGradient id="volumen-3" data-name="volumen" x1="-3479.27" y1="-3637.92" x2="-3461.49" y2="-3658.35" gradientTransform="translate(-3334.76 3698.82) rotate(90)" xlink:href="#volumen"/>
    <linearGradient id="volumen-4" data-name="volumen" x1="-3674.84" y1="3919.33" x2="-3657.07" y2="3898.89" gradientTransform="translate(-3568.95 -3432.06) rotate(-90)" xlink:href="#volumen"/>
    <linearGradient id="volumen-5" data-name="volumen" x1="-7319.03" y1="211.41" x2="-7301.26" y2="190.98" gradientTransform="translate(-7025.11 463.43) rotate(-180)" xlink:href="#volumen"/>
    <linearGradient id="volumen-6" data-name="volumen" x1="164.93" y1="69.99" x2="182.7" y2="49.56" gradientTransform="translate(105.76 229.24)" xlink:href="#volumen"/>
    <linearGradient id="volumen-7" data-name="volumen" x1="-3366.24" y1="4155.77" x2="-3348.47" y2="4135.34" gradientTransform="translate(-3894.32 3585.79) rotate(90) scale(1 -1)" xlink:href="#volumen"/>
    <linearGradient id="volumen-8" data-name="volumen" x1="-3787.87" y1="-3874.37" x2="-3770.09" y2="-3894.8" gradientTransform="translate(-3660.13 -3545.09) rotate(-90) scale(1 -1)" xlink:href="#volumen"/>
    <linearGradient id="volumen-9" data-name="volumen" x1="-6273.27" y1="-2576.01" x2="-6255.5" y2="-2596.44" gradientTransform="translate(-5952.14 2852.01) rotate(135)" xlink:href="#volumen"/>
    <linearGradient id="volumen-10" data-name="volumen" x1="-880.83" y1="2857.41" x2="-863.06" y2="2836.98" gradientTransform="translate(-1075.41 -2355.84) rotate(-45)" xlink:href="#volumen"/>
    <linearGradient id="volumen-11" data-name="volumen" x1="-6265.58" y1="2906.04" x2="-6247.81" y2="2885.61" gradientTransform="translate(-6209.53 -2121.49) rotate(-135)" xlink:href="#volumen"/>
    <linearGradient id="volumen-12" data-name="volumen" x1="-888.52" y1="-2624.64" x2="-870.75" y2="-2645.07" gradientTransform="translate(-1001.68 2755.25) rotate(45)" xlink:href="#volumen"/>
    <linearGradient id="volumen-13" data-name="volumen" x1="-775.07" y1="2997.73" x2="-757.3" y2="2977.3" gradientTransform="translate(-1312.29 -2443.15) rotate(-45)" xlink:href="#volumen"/>
    <linearGradient id="volumen-14" data-name="volumen" x1="-6379.04" y1="-2716.33" x2="-6361.26" y2="-2736.76" gradientTransform="translate(-6189.02 2764.69) rotate(135)" xlink:href="#volumen"/>
    <linearGradient id="volumen-15" data-name="volumen" x1="-6152.56" y1="-2388.19" x2="-6134.79" y2="-2408.62" gradientTransform="translate(-5733.94 -2437.23) rotate(-135) scale(1 -1)" xlink:href="#volumen"/>
    <linearGradient id="volumen-16" data-name="volumen" x1="-1001.55" y1="2669.59" x2="-983.78" y2="2649.16" gradientTransform="translate(-857.29 2770.7) rotate(45) scale(1 -1)" xlink:href="#volumen"/>
  </defs>
  <g class="cls-25">
    <g id="Capa_1" data-name="Capa 1">
      <g>
        <g>
          <path class="cls-22" d="M356.76,231.16s0-.02,0-.03c0-3.97-1.51-7.55-4.12-9.8-7.25-6.26-15.72-3.42-25.87,3.95-4.85-3.52-9.32-6.01-13.45-6.97,2.25-3.6,3.65-8.52,4.58-14.43,12.39-1.96,20.39-5.95,21.09-15.5.25-3.45-1.22-7.04-4.04-9.86-2.82-2.82-6.41-4.29-9.86-4.04-9.55.7-13.54,8.7-15.5,21.09-5.92.94-10.84,2.34-14.44,4.58-.95-4.13-3.44-8.6-6.97-13.45,7.38-10.15,10.21-18.63,3.95-25.87-2.26-2.62-5.84-4.12-9.83-4.12s-7.57,1.5-9.83,4.12c-6.26,7.25-3.42,15.72,3.95,25.87-3.52,4.85-6.01,9.32-6.97,13.45-3.6-2.25-8.52-3.65-14.44-4.58-1.96-12.39-5.95-20.39-15.5-21.09-3.46-.26-7.05,1.22-9.86,4.04-2.82,2.82-4.29,6.41-4.04,9.86.7,9.55,8.7,13.54,21.09,15.5.94,5.92,2.34,10.84,4.58,14.43-4.13.95-8.6,3.44-13.45,6.97-10.15-7.38-18.63-10.21-25.87-3.95-2.62,2.26-4.12,5.85-4.12,9.83s1.5,7.57,4.12,9.83c2.76,2.38,5.69,3.45,8.83,3.45,5.11,0,10.75-2.83,17.04-7.4,4.85,3.53,9.32,6.01,13.45,6.96-2.25,3.6-3.65,8.52-4.59,14.44-12.39,1.96-20.39,5.95-21.09,15.5-.25,3.45,1.22,7.05,4.04,9.86,2.61,2.61,5.89,4.07,9.1,4.07.25,0,.51,0,.76-.03,9.55-.7,13.54-8.7,15.5-21.09,5.92-.94,10.84-2.34,14.44-4.58.95,4.13,3.44,8.6,6.97,13.45-7.38,10.15-10.21,18.63-3.95,25.87,2.26,2.62,5.84,4.12,9.83,4.12s7.57-1.5,9.83-4.12c6.26-7.25,3.42-15.72-3.95-25.87,3.52-4.85,6.01-9.32,6.97-13.45,3.6,2.25,8.52,3.65,14.44,4.58,1.96,12.39,5.95,20.39,15.5,21.09.25.02.51.03.76.03,3.21,0,6.49-1.46,9.1-4.07h0s0,0,0,0c0,0,0,0,0,0,2.82-2.82,4.29-6.41,4.04-9.86-.7-9.55-8.7-13.54-21.09-15.5-.94-5.92-2.34-10.84-4.59-14.44,4.13-.95,8.6-3.43,13.45-6.96,6.29,4.57,11.93,7.4,17.04,7.4,3.14,0,6.07-1.07,8.83-3.45,2.61-2.26,4.11-5.83,4.12-9.8,0,0,0-.02,0-.03Z"/>
          <path class="cls-20" d="M351.72,222.4c1.65,1.43,2.81,3.55,3.33,5.95-4.6-2.35-13.28-5.01-21.94,1.9-1.76-1.46-3.47-2.83-5.14-4.08,10.96-7.83,17.93-8.8,23.75-3.77Z"/>
          <path class="cls-20" d="M332,231.16c-1.84,1.52-3.58,2.89-5.23,4.12-1.65-1.22-3.39-2.59-5.23-4.12,1.84-1.52,3.58-2.89,5.23-4.12,1.65,1.22,3.39,2.59,5.23,4.12Z"/>
          <path class="cls-20" d="M325.56,226.17c-1.67,1.25-3.38,2.61-5.13,4.08-8.66-6.91-17.34-4.25-21.94-1.9.27-1.27.73-2.46,1.35-3.52.6.1,1.2.17,1.8.17.25,0,.51,0,.76-.03,4.42-.32,7.65-2.21,10.04-5.38,3.69.73,7.96,2.9,13.12,6.58Z"/>
          <path class="cls-22" d="M292.54,241.39c-1.73,1.73-2.95,3.75-3.57,5.85-1.93-1.04-4.21-1.61-6.66-1.61s-4.73.57-6.66,1.61c-.63-2.1-1.85-4.12-3.57-5.84,0,0,0,0,0,0,0,0,0,0,0,0,0,0,0,0,0,0-1.73-1.73-3.75-2.95-5.84-3.58,1.04-1.93,1.61-4.21,1.61-6.66s-.57-4.74-1.61-6.67c2.1-.63,4.12-1.84,5.85-3.56,1.73-1.73,2.95-3.75,3.58-5.85,1.93,1.04,4.21,1.61,6.66,1.61s4.73-.57,6.66-1.61c.63,2.1,1.85,4.12,3.58,5.85,1.73,1.73,3.75,2.94,5.85,3.57-1.04,1.92-1.61,4.2-1.61,6.64,0,0,0,.02,0,.03s0,.02,0,.03c0,2.43.57,4.71,1.6,6.63-2.1.63-4.12,1.85-5.84,3.58Z"/>
          <path class="cls-20" d="M278.19,275.62c1.22-1.65,2.59-3.39,4.12-5.23,1.52,1.84,2.89,3.58,4.12,5.23-1.22,1.65-2.59,3.39-4.12,5.23-1.52-1.84-2.89-3.58-4.12-5.23Z"/>
          <path class="cls-20" d="M286.42,186.7c-1.22,1.65-2.59,3.39-4.12,5.23-1.52-1.84-2.89-3.58-4.12-5.23,1.22-1.65,2.59-3.39,4.12-5.23,1.52,1.84,2.89,3.58,4.12,5.23Z"/>
          <path class="cls-20" d="M293.88,201.03c-3.17,2.39-5.06,5.62-5.38,10.04-.06.85-.02,1.72.13,2.57-1.05.61-2.23,1.07-3.5,1.34,2.35-4.6,5.01-13.28-1.9-21.94,1.46-1.76,2.83-3.47,4.08-5.14,3.69,5.16,5.85,9.44,6.58,13.12Z"/>
          <path class="cls-20" d="M291.07,161.75c5.03,5.82,4.06,12.79-3.77,23.75-1.25-1.67-2.62-3.38-4.08-5.14,6.91-8.66,4.25-17.34,1.9-21.94,2.4.52,4.52,1.68,5.95,3.33Z"/>
          <path class="cls-20" d="M273.54,161.75c1.43-1.65,3.55-2.81,5.95-3.33-2.35,4.6-5.01,13.29,1.9,21.94-1.46,1.76-2.83,3.47-4.08,5.14-7.83-10.96-8.8-17.93-3.77-23.75Z"/>
          <path class="cls-20" d="M277.31,187.9c1.25,1.67,2.62,3.38,4.08,5.14-6.91,8.66-4.25,17.34-1.9,21.94-1.27-.27-2.45-.73-3.5-1.34.14-.86.19-1.72.13-2.57-.32-4.43-2.22-7.65-5.38-10.04.74-3.69,2.9-7.96,6.58-13.12Z"/>
          <path class="cls-20" d="M252.17,219.59c2.39,3.17,5.62,5.06,10.04,5.38.25.02.51.03.76.03.6,0,1.2-.07,1.8-.17.62,1.05,1.07,2.24,1.35,3.52-4.6-2.35-13.28-5.01-21.94,1.9-1.76-1.46-3.47-2.83-5.14-4.08,5.16-3.69,9.44-5.85,13.12-6.58Z"/>
          <path class="cls-20" d="M243.08,231.16c-1.84,1.52-3.58,2.9-5.23,4.12-1.65-1.22-3.39-2.59-5.23-4.12,1.84-1.52,3.58-2.89,5.23-4.12,1.65,1.22,3.39,2.59,5.23,4.12Z"/>
          <path class="cls-20" d="M212.89,222.4c2.37-2.05,4.93-3.1,7.87-3.1,4.28,0,9.38,2.24,15.88,6.88-1.67,1.25-3.38,2.61-5.13,4.08-8.66-6.91-17.34-4.25-21.94-1.9.52-2.4,1.68-4.52,3.33-5.95Z"/>
          <path class="cls-20" d="M212.89,239.93c-1.65-1.43-2.81-3.55-3.33-5.95,4.6,2.35,13.28,5.01,21.94-1.9,1.76,1.46,3.47,2.83,5.14,4.08-10.96,7.83-17.93,8.8-23.75,3.77Z"/>
          <path class="cls-20" d="M239.05,236.15c1.67-1.25,3.38-2.62,5.14-4.08,8.66,6.91,17.34,4.25,21.94,1.9-.27,1.27-.73,2.45-1.34,3.5-.86-.14-1.72-.19-2.57-.12-4.43.32-7.65,2.22-10.04,5.38-3.69-.74-7.96-2.9-13.12-6.58Z"/>
          <path class="cls-20" d="M270.73,261.3c3.17-2.39,5.06-5.62,5.38-10.04.06-.85.02-1.72-.13-2.57,1.05-.61,2.23-1.07,3.5-1.34-2.35,4.6-5.01,13.28,1.9,21.94-1.46,1.76-2.83,3.47-4.08,5.14-3.69-5.16-5.85-9.44-6.58-13.12Z"/>
          <path class="cls-20" d="M273.54,300.58c-5.03-5.82-4.06-12.79,3.77-23.75,1.25,1.67,2.62,3.38,4.08,5.14-6.91,8.66-4.25,17.34-1.9,21.94-2.4-.52-4.52-1.68-5.95-3.33Z"/>
          <path class="cls-20" d="M291.07,300.58c-1.43,1.65-3.55,2.81-5.95,3.33,2.35-4.6,5.01-13.29-1.9-21.94,1.46-1.76,2.83-3.47,4.08-5.14,7.83,10.96,8.8,17.93,3.77,23.75Z"/>
          <path class="cls-20" d="M287.3,274.42c-1.25-1.67-2.62-3.38-4.08-5.14,6.91-8.66,4.25-17.34,1.9-21.94,1.27.27,2.45.73,3.5,1.34-.14.86-.19,1.72-.12,2.57.32,4.43,2.22,7.65,5.38,10.04-.73,3.69-2.9,7.96-6.58,13.12Z"/>
          <g>
            <path class="cls-23" d="M355.35,231.16s0,0,0,0c0,.65-.28,1.21-.71,1.44-4.18,2.2-12.3,4.85-20.42-1.44,8.11-6.29,16.24-3.64,20.42-1.44.43.23.71.79.71,1.44,0,0,0,0,0,0Z"/>
            <path class="cls-23" d="M295.06,241.87c4.51,1.41,12.13,5.27,13.42,15.46-10.19-1.29-14.05-8.91-15.46-13.42-.15-.47.06-1.07.52-1.53.36-.36.81-.56,1.21-.56.11,0,.22.02.32.05Z"/>
            <path class="cls-23" d="M283.75,247.75c2.19,4.18,4.85,12.3-1.44,20.42-6.29-8.11-3.64-16.23-1.44-20.42.23-.43.79-.72,1.44-.72s1.22.28,1.44.72Z"/>
            <path class="cls-23" d="M282.31,304.21c-.65,0-1.22-.28-1.44-.71-2.19-4.18-4.85-12.3,1.44-20.42,6.29,8.11,3.64,16.23,1.44,20.42-.23.43-.79.71-1.44.71Z"/>
            <path class="cls-23" d="M271.6,243.92c-1.41,4.51-5.27,12.13-15.46,13.42,1.29-10.19,8.91-14.05,13.42-15.46.1-.03.21-.05.32-.05.4,0,.85.2,1.21.56,0,0,0,0,0,0,.46.46.66,1.06.51,1.52Z"/>
            <path class="cls-23" d="M271.08,219.94c-.46.46-1.06.66-1.53.52-4.51-1.41-12.13-5.27-13.42-15.46,10.19,1.29,14.05,8.91,15.46,13.42.15.47-.06,1.07-.52,1.53Z"/>
            <path class="cls-23" d="M280.86,214.57c-2.19-4.18-4.85-12.3,1.44-20.42,6.29,8.11,3.64,16.23,1.44,20.42-.23.43-.79.72-1.44.72s-1.22-.28-1.44-.72Z"/>
            <path class="cls-23" d="M282.31,158.12c.65,0,1.22.28,1.44.71,2.19,4.18,4.85,12.3-1.44,20.42-6.29-8.11-3.64-16.23-1.44-20.42.23-.43.79-.71,1.44-.71Z"/>
            <path class="cls-23" d="M293.53,219.94c-.46-.46-.66-1.06-.52-1.53,1.41-4.51,5.27-12.13,15.46-13.42-1.29,10.19-8.91,14.05-13.42,15.46-.47.15-1.07-.06-1.53-.52Z"/>
            <path class="cls-23" d="M298.18,231.16s0,0,0,0c0-.65.28-1.21.71-1.44,2.24-1.17,5.6-2.48,9.48-2.48,3.38,0,7.16.99,10.94,3.92-8.11,6.29-16.23,3.64-20.42,1.44-.43-.23-.71-.79-.71-1.44,0,0,0,0,0,0Z"/>
            <path class="cls-23" d="M332.75,178.95c.4,0,.85.2,1.21.56.46.46.66,1.06.52,1.53-1.41,4.51-5.27,12.13-15.46,13.42,1.29-10.19,8.91-14.05,13.42-15.46.1-.03.21-.05.32-.05Z"/>
            <path class="cls-23" d="M230.65,179.51c.36-.36.81-.56,1.21-.56.11,0,.22.02.32.05,4.51,1.41,12.13,5.27,13.42,15.46-10.19-1.29-14.05-8.91-15.46-13.42-.15-.47.06-1.07.52-1.53Z"/>
            <path class="cls-23" d="M266.43,231.16c0,.65-.28,1.22-.71,1.44-4.18,2.19-12.3,4.85-20.42-1.44,8.11-6.29,16.24-3.64,20.42-1.44.43.23.71.79.71,1.44Z"/>
            <path class="cls-23" d="M230.39,231.16c-8.11,6.29-16.23,3.64-20.42,1.44-.43-.23-.71-.79-.71-1.44s.28-1.22.71-1.44h0c2.24-1.17,5.59-2.48,9.48-2.48,3.38,0,7.16.99,10.94,3.92Z"/>
            <path class="cls-23" d="M230.65,282.82c-.46-.46-.66-1.06-.52-1.53,1.41-4.51,5.27-12.13,15.46-13.42-1.29,10.19-8.91,14.05-13.42,15.46-.47.15-1.07-.06-1.53-.52Z"/>
            <path class="cls-23" d="M333.96,282.81s0,0,0,0c-.46.46-1.06.66-1.53.52-4.51-1.41-12.13-5.27-13.42-15.46,10.19,1.29,14.05,8.91,15.46,13.42.15.47-.06,1.07-.52,1.52Z"/>
          </g>
          <g>
            <path class="cls-17" d="M311.8,218.04c-3.93-.55-7.55.39-10.91,3.29-.65.56-1.23,1.2-1.73,1.91-1.18-.31-2.33-.83-3.42-1.53,4.91-1.59,12.93-5.85,14.17-16.86,2.28-.21,4.45-.45,6.52-.75-1.04,6.26-2.54,10.81-4.62,13.93Z"/>
            <path class="cls-17" d="M316.66,202.64c-2.03.3-4.23.57-6.61.79.22-2.38.48-4.58.79-6.61,2.03-.3,4.23-.57,6.61-.79-.22,2.38-.48,4.58-.79,6.61Z"/>
            <path class="cls-17" d="M337.59,188.28c-.56,7.67-6.18,11.91-19.46,14.13.29-2.06.54-4.24.75-6.52,11.01-1.24,15.27-9.26,16.86-14.17,1.33,2.06,2.01,4.38,1.86,6.56Z"/>
            <path class="cls-17" d="M325.19,175.88c.21-.02.42-.02.63-.02,1.99,0,4.06.68,5.92,1.88-4.91,1.59-12.93,5.86-14.17,16.86-2.28.21-4.45.45-6.52.75,2.21-13.29,6.46-18.9,14.13-19.46Z"/>
            <path class="cls-17" d="M309.37,197.04c-.29,2.06-.54,4.24-.75,6.52-11.01,1.24-15.27,9.26-16.86,14.17-.7-1.09-1.22-2.25-1.53-3.42.71-.51,1.35-1.08,1.91-1.73,2.9-3.36,3.84-6.98,3.29-10.91,3.13-2.09,7.68-3.58,13.94-4.62Z"/>
            <path class="cls-17" d="M269.18,201.67c-.55,3.93.39,7.55,3.29,10.91.56.65,1.2,1.23,1.91,1.73-.31,1.17-.83,2.33-1.53,3.42-1.59-4.91-5.85-12.93-16.86-14.17-.21-2.28-.45-4.45-.75-6.52,6.26,1.04,10.81,2.54,13.94,4.62Z"/>
            <path class="cls-17" d="M254.57,203.43c-2.38-.22-4.58-.48-6.61-.79-.3-2.03-.57-4.23-.79-6.61,2.38.22,4.58.48,6.61.79.3,2.03.57,4.23.79,6.61Z"/>
            <path class="cls-17" d="M239.42,175.88c7.67.56,11.91,6.18,14.13,19.46-2.06-.29-4.24-.54-6.52-.75-1.24-11.01-9.25-15.27-14.17-16.86,1.86-1.2,3.93-1.88,5.92-1.88.21,0,.42,0,.63.02Z"/>
            <path class="cls-17" d="M227.02,188.28c-.16-2.18.52-4.5,1.86-6.56,1.59,4.91,5.85,12.93,16.86,14.17.21,2.28.45,4.45.75,6.52-13.29-2.21-18.9-6.46-19.46-14.13Z"/>
            <path class="cls-17" d="M248.19,204.1c2.06.29,4.24.54,6.52.75,1.24,11.01,9.26,15.27,14.17,16.86-1.09.7-2.25,1.22-3.42,1.53-.5-.71-1.08-1.35-1.73-1.91-3.36-2.9-6.98-3.84-10.91-3.29-2.09-3.13-3.58-7.68-4.62-13.93Z"/>
            <path class="cls-17" d="M252.82,244.28c.7.1,1.39.16,2.07.16,3.14,0,6.07-1.07,8.83-3.45.65-.56,1.23-1.2,1.73-1.91,1.17.31,2.33.83,3.42,1.53-4.91,1.59-12.93,5.85-14.17,16.86-2.28.21-4.45.45-6.52.75,1.04-6.26,2.54-10.81,4.63-13.94Z"/>
            <path class="cls-17" d="M247.96,259.69c2.03-.3,4.23-.57,6.61-.79-.22,2.38-.48,4.58-.79,6.61-2.03.3-4.23.57-6.61.79.22-2.38.48-4.58.79-6.61Z"/>
            <path class="cls-17" d="M227.02,274.05c.56-7.67,6.18-11.91,19.46-14.13-.29,2.06-.54,4.24-.75,6.52-11.01,1.24-15.27,9.26-16.86,14.17-1.33-2.06-2.01-4.38-1.86-6.56Z"/>
            <path class="cls-17" d="M239.42,286.45c-2.18.16-4.5-.52-6.56-1.86,4.91-1.59,12.93-5.85,14.17-16.86,2.28-.21,4.45-.45,6.52-.75-2.21,13.29-6.46,18.9-14.13,19.46Z"/>
            <path class="cls-17" d="M255.25,265.28c.29-2.06.54-4.24.75-6.52,11.01-1.24,15.27-9.26,16.86-14.17.7,1.09,1.22,2.25,1.53,3.42-.71.51-1.35,1.08-1.91,1.73-2.9,3.36-3.84,6.98-3.29,10.91-3.13,2.09-7.68,3.58-13.94,4.62Z"/>
            <path class="cls-17" d="M295.43,260.66c.55-3.93-.39-7.55-3.29-10.91-.56-.65-1.2-1.23-1.91-1.73.31-1.18.83-2.34,1.53-3.43,1.59,4.91,5.85,12.93,16.86,14.17.21,2.28.45,4.45.75,6.52-6.26-1.04-10.81-2.54-13.94-4.62Z"/>
            <path class="cls-17" d="M310.04,258.9c2.38.22,4.58.48,6.61.79.3,2.03.57,4.23.79,6.61-2.38-.22-4.58-.48-6.61-.79-.3-2.03-.57-4.23-.79-6.61Z"/>
            <path class="cls-17" d="M325.19,286.44c-7.67-.56-11.91-6.18-14.13-19.46,2.06.29,4.24.54,6.52.75,1.24,11.01,9.26,15.27,14.17,16.86-2.06,1.33-4.38,2.01-6.56,1.86Z"/>
            <path class="cls-17" d="M337.59,274.05c.16,2.18-.52,4.5-1.86,6.56-1.59-4.91-5.85-12.93-16.86-14.17-.21-2.28-.45-4.45-.75-6.52,13.29,2.21,18.9,6.46,19.46,14.13Z"/>
            <path class="cls-17" d="M316.42,258.22c-2.06-.29-4.24-.54-6.52-.75-1.24-11.01-9.25-15.27-14.17-16.86,1.09-.7,2.25-1.22,3.42-1.53.51.71,1.08,1.35,1.73,1.91,2.76,2.38,5.69,3.45,8.83,3.45.68,0,1.37-.06,2.07-.16,2.09,3.13,3.59,7.68,4.63,13.94Z"/>
          </g>
          <g>
            <path class="cls-18" d="M300.74,223.53c.33-.41.68-.79,1.07-1.13,2.37-2.05,4.93-3.1,7.87-3.1.37,0,.75.02,1.13.05-2.21,2.63-5,3.96-8.52,4.22-.51.04-1.03.01-1.56-.04Z"/>
            <path class="cls-18" d="M289.9,211.17c.26-3.52,1.58-6.31,4.21-8.52.3,3.42-.74,6.34-3.04,9-.34.39-.72.74-1.13,1.07-.05-.52-.08-1.05-.04-1.56Z"/>
            <path class="cls-18" d="M270.5,202.65c2.63,2.21,3.96,5,4.21,8.52.04.51.01,1.03-.04,1.56-.41-.33-.79-.68-1.13-1.07-2.3-2.67-3.34-5.58-3.04-9Z"/>
            <path class="cls-18" d="M263.87,223.53c-.52.05-1.04.08-1.56.04-3.52-.26-6.31-1.58-8.52-4.21,3.42-.3,6.34.74,9,3.04.39.34.74.72,1.07,1.13Z"/>
            <path class="cls-18" d="M263.88,238.79c-.33.41-.69.8-1.08,1.14-2.67,2.31-5.58,3.34-9,3.04,2.21-2.63,5-3.96,8.52-4.21.21-.02.42-.02.63-.02.31,0,.62.02.93.05Z"/>
            <path class="cls-18" d="M274.71,251.16c-.26,3.52-1.58,6.31-4.21,8.52-.3-3.42.74-6.34,3.04-9,.34-.39.72-.74,1.13-1.07.05.52.08,1.05.04,1.56Z"/>
            <path class="cls-18" d="M294.12,259.67c-2.63-2.21-3.96-5-4.21-8.52-.04-.51-.01-1.03.04-1.56.41.33.79.68,1.13,1.07,2.3,2.67,3.34,5.58,3.04,9Z"/>
            <path class="cls-18" d="M300.73,238.79c.31-.03.62-.05.93-.05.21,0,.42,0,.63.02,3.52.26,6.31,1.58,8.52,4.21-3.42.3-6.34-.74-9-3.04-.39-.34-.74-.73-1.08-1.14Z"/>
          </g>
          <path class="cls-20" d="M312.44,242.74c-2.39-3.17-5.62-5.06-10.04-5.38-.86-.06-1.72-.02-2.58.12-.61-1.05-1.06-2.23-1.34-3.5,4.6,2.35,13.28,5.01,21.94-1.9,1.76,1.46,3.47,2.83,5.14,4.08-5.16,3.69-9.43,5.85-13.12,6.58Z"/>
          <path class="cls-20" d="M351.72,239.93c-5.82,5.03-12.79,4.06-23.75-3.77,1.67-1.25,3.38-2.62,5.14-4.08,8.66,6.91,17.34,4.25,21.94,1.9-.52,2.4-1.68,4.52-3.33,5.95Z"/>
          <g>
            <path class="cls-24" d="M277.31,187.9c1.25,1.67,2.62,3.38,4.08,5.14-6.91,8.66-4.25,17.34-1.9,21.94-1.27-.27-2.45-.73-3.5-1.34.14-.86.19-1.72.13-2.57-.32-4.43-2.22-7.65-5.38-10.04.74-3.69,2.9-7.96,6.58-13.12Z"/>
            <path class="cls-11" d="M287.3,185.5c-1.25-1.67-2.62-3.38-4.08-5.14,6.91-8.66,4.25-17.34,1.9-21.94,1.27.27,2.45.73,3.5,1.34-.14.86-.19,1.72-.13,2.57.32,4.43,2.22,7.65,5.38,10.04-.74,3.69-2.9,7.96-6.58,13.12Z"/>
            <path class="cls-10" d="M325.57,226.17c-1.67,1.25-3.38,2.62-5.14,4.08-8.66-6.91-17.34-4.25-21.94-1.9.27-1.27.73-2.45,1.34-3.5.86.14,1.72.19,2.57.13,4.43-.32,7.65-2.22,10.04-5.38,3.69.74,7.96,2.9,13.12,6.58Z"/>
            <path class="cls-9" d="M327.97,236.16c1.67-1.25,3.38-2.62,5.14-4.08,8.66,6.91,17.34,4.25,21.94,1.9-.27,1.27-.73,2.45-1.34,3.5-.86-.14-1.72-.19-2.57-.13-4.43.32-7.65,2.22-10.04,5.38-3.69-.74-7.96-2.9-13.12-6.58Z"/>
            <path class="cls-12" d="M287.3,274.42c-1.25-1.67-2.62-3.38-4.08-5.14,6.91-8.66,4.25-17.34,1.9-21.94,1.27.27,2.45.73,3.5,1.34-.14.86-.19,1.72-.13,2.57.32,4.43,2.22,7.65,5.38,10.04-.74,3.69-2.9,7.96-6.58,13.12Z"/>
            <path class="cls-14" d="M277.31,276.83c1.25,1.67,2.62,3.38,4.08,5.14-6.91,8.66-4.25,17.34-1.9,21.94-1.27-.27-2.45-.73-3.5-1.34.14-.86.19-1.72.13-2.57-.32-4.43-2.22-7.65-5.38-10.04.74-3.69,2.9-7.96,6.58-13.12Z"/>
            <path class="cls-15" d="M239.05,226.17c1.67,1.25,3.38,2.62,5.14,4.08,8.66-6.91,17.34-4.25,21.94-1.9-.27-1.27-.73-2.45-1.34-3.5-.86.14-1.72.19-2.57.13-4.43-.32-7.65-2.22-10.04-5.38-3.69.74-7.96,2.9-13.12,6.58Z"/>
            <path class="cls-13" d="M236.64,236.16c-1.67-1.25-3.38-2.62-5.14-4.08-8.66,6.91-17.34,4.25-21.94,1.9.27,1.27.73,2.45,1.34,3.5.86-.14,1.72-.19,2.57-.13,4.43.32,7.65,2.22,10.04,5.38,3.69-.74,7.96-2.9,13.12-6.58Z"/>
          </g>
          <g>
            <path class="cls-16" d="M316.42,258.22c-2.06-.29-4.24-.54-6.52-.75-1.24-11.01-9.26-15.27-14.17-16.86,1.09-.7,2.25-1.22,3.42-1.53.51.71,1.08,1.35,1.73,1.91,3.36,2.9,6.98,3.84,10.91,3.29,2.09,3.13,3.58,7.68,4.62,13.94Z"/>
            <path class="cls-5" d="M311.06,266.98c2.06.29,4.24.54,6.52.75,1.24,11.01,9.26,15.27,14.17,16.86-1.09.7-2.25,1.22-3.42,1.53-.51-.71-1.08-1.35-1.73-1.91-3.36-2.9-6.98-3.84-10.91-3.29-2.09-3.13-3.58-7.68-4.62-13.94Z"/>
            <path class="cls-4" d="M255.25,265.28c.29-2.06.54-4.24.75-6.52,11.01-1.24,15.27-9.26,16.86-14.17.7,1.09,1.22,2.25,1.53,3.42-.71.51-1.35,1.08-1.91,1.73-2.9,3.36-3.84,6.98-3.29,10.91-3.13,2.09-7.68,3.58-13.94,4.62Z"/>
            <path class="cls-8" d="M246.49,259.92c-.29,2.06-.54,4.24-.75,6.52-11.01,1.24-15.27,9.26-16.86,14.17-.7-1.09-1.22-2.25-1.53-3.42.71-.51,1.35-1.08,1.91-1.73,2.9-3.36,3.84-6.98,3.29-10.91,3.13-2.09,7.68-3.58,13.94-4.62Z"/>
            <path class="cls-6" d="M248.19,204.1c2.06.29,4.24.54,6.52.75,1.24,11.01,9.26,15.27,14.17,16.86-1.09.7-2.25,1.22-3.42,1.53-.51-.71-1.08-1.35-1.73-1.91-3.36-2.9-6.98-3.84-10.91-3.29-2.09-3.13-3.58-7.68-4.62-13.94Z"/>
            <path class="cls-7" d="M253.55,195.35c-2.06-.29-4.24-.54-6.52-.75-1.24-11.01-9.26-15.27-14.17-16.86,1.09-.7,2.25-1.22,3.42-1.53.51.71,1.08,1.35,1.73,1.91,3.36,2.9,6.98,3.84,10.91,3.29,2.09,3.13,3.58,7.68,4.62,13.94Z"/>
            <path class="cls-3" d="M316.42,204.1c-2.06.29-4.24.54-6.52.75-1.24,11.01-9.26,15.27-14.17,16.86,1.09.7,2.25,1.22,3.42,1.53.51-.71,1.08-1.35,1.73-1.91,3.36-2.9,6.98-3.84,10.91-3.29,2.09-3.13,3.58-7.68,4.62-13.94Z"/>
            <path class="cls-2" d="M311.06,195.35c2.06-.29,4.24-.54,6.52-.75,1.24-11.01,9.26-15.27,14.17-16.86-1.09-.7-2.25-1.22-3.42-1.53-.51.71-1.08,1.35-1.73,1.91-3.36,2.9-6.98,3.84-10.91,3.29-2.09,3.13-3.58,7.68-4.62,13.94Z"/>
          </g>
        </g>
        <path class="cls-21" d="M456.8,426.38s-.01,0-.02,0c0,0,0,0,0,0,0,0,.01,0,.02,0Z"/>
        <g>
          <path class="cls-19" d="M154.87,412.38h0c-2.43,0-4.4-1.97-4.4-4.4v-21.39h-53.97v21.39c0,2.43-1.97,4.4-4.4,4.4h0c-2.43,0-4.4-1.97-4.4-4.4v-27.05c0-36.86,20.25-56.61,57.87-56.61h13.71v83.66c0,2.43-1.97,4.4-4.4,4.4ZM150.47,378.42v-45.92h-4.91c-32.46,0-48.56,15.6-49.06,45.92h53.97Z"/>
          <path class="cls-19" d="M201.79,403.97c13.84,0,23.27-9.06,23.27-22.52v-29.06c0-2.43,1.97-4.4,4.4-4.4h0c2.43,0,4.4,1.97,4.4,4.4v27.64c0,17.8-14.49,32.35-32.29,32.12-19.29-.25-31.74-12.89-31.74-31.7v-28.05c0-2.43,1.97-4.4,4.4-4.4h0c2.43,0,4.4,1.97,4.4,4.4v29.06c0,13.33,9.44,22.52,23.15,22.52Z"/>
          <path class="cls-19" d="M249.72,412.03h0c-2.43,0-4.4-1.97-4.4-4.4v-42.81c0-17.51,10.79-29.67,27.85-31.47,2.4-.25,4.48,1.67,4.48,4.09h0c0,2.08-1.56,3.83-3.63,4.06-12.06,1.39-19.89,9.82-19.89,22.31v43.82c0,2.43-1.97,4.4-4.4,4.4Z"/>
          <path class="cls-19" d="M275.51,380.57c.13,14.34,9.81,24.16,24.28,24.16,10.99,0,18.86-5.73,22.18-14.83.61-1.69,2.25-2.78,4.04-2.78h0c2.98,0,5.1,2.95,4.11,5.77-4.36,12.38-15.2,20.02-30.33,20.02-19.88,0-33.09-13.08-33.09-32.71s13.21-32.71,33.09-32.71,31.95,11.7,31.83,30.07v3.02h-56.11ZM322.56,372.39c-2.64-10.69-10.69-16.73-22.77-16.73s-20.38,6.54-23.27,16.73h46.04Z"/>
          <path class="cls-19" d="M372.88,347.82c19.88,0,33.09,13.08,33.09,32.71s-13.21,32.71-33.09,32.71-33.09-13.08-33.09-32.71,13.21-32.71,33.09-32.71ZM372.88,405.06c14.59,0,24.28-9.94,24.28-24.53s-9.69-24.53-24.28-24.53-24.28,9.94-24.28,24.53,9.69,24.53,24.28,24.53Z"/>
          <path class="cls-19" d="M417.29,412.33h0c-2.43,0-4.4-1.97-4.4-4.4v-28.05c0-18.81,12.45-31.45,31.74-31.7,17.8-.23,32.29,14.31,32.29,32.12v27.64c0,2.43-1.97,4.4-4.4,4.4h0c-2.43,0-4.4-1.97-4.4-4.4v-29.06c0-13.46-9.43-22.52-23.27-22.52s-23.15,9.18-23.15,22.52v29.06c0,2.43-1.97,4.4-4.4,4.4Z"/>
        </g>
        <g>
          <path class="cls-20" d="M294.16,230.32l-.72-1.25h0s-1.68-2.93-1.68-2.93l-6.85-11.92c-.49-.85-1.32-1.5-2.29-1.64-1.24-.17-2.38.38-3.03,1.39-.03.05-.07.08-.1.13l-6.92,12.04-3.03,5.27h0s-3.09,5.38-3.09,5.38c-.87,1.51.22,3.39,1.96,3.39h27.52c1.74,0,2.83-1.88,1.96-3.39l-3.72-6.46ZM274.08,227.39h0s.04-.04.04-.04c.27-.24,1.79-1.43,2.16-1.68q.23-.15,4.96-8.3c.27-.47.72-.52.9-.52s.64.05.91.53l4.53,7.88.12.21.2.13c.18.13,2.04,1.54,2.25,1.73l2.72,2.42-.36.43c-.15.19-.35.41-.58.68-.07.08-.13.14-.2.21l-.5.54.37.64,1.79,3.11c.27.47.09.89,0,1.05-.09.16-.36.52-.91.52h-20.67c-.55,0-.82-.37-.91-.52-.09-.16-.27-.57,0-1.05l1.79-3.11.37-.64-.5-.54-.19-.21c-.21-.24-.41-.46-.59-.69l-.37-.45,2.66-2.35h0Z"/>
          <path class="cls-22" d="M297.59,236.18l-.06-.06-14.59-25.38c-.35-.61-1.24-.61-1.59,0l-15.17,26.36c-.8,1.39.2,3.13,1.81,3.13h28.31c1.61,0,2.61-1.74,1.81-3.13l-.53-.92ZM284.73,215.94l10.8,18.78c1.14,1.98-.29,4.46-2.58,4.46h-21.6c-2.29,0-3.72-2.47-2.58-4.46l10.8-18.78c1.14-1.99,4.01-1.99,5.16,0Z"/>
          <path class="cls-23" d="M273.54,227.97s0,0,0,0c-.04.04-.09.08-.13.13-.23.23-.45.45-.68.7,0,0-.01.02-.02.02-.08.08-.15.17-.22.24l-.07.07c-.31.34-.55.64-.72.84.02.03.05.06.08.09.2.24.41.49.64.74,0,0,0,0,0,0,.09.1.18.2.28.31.23.24.46.48.7.72.05.05.09.09.14.14.2.19.42.4.65.6.29.25.53.46.76.64l.19.15c.38.3.78.59,1.18.86.24.16.47.3.69.43,1.76,1.04,3.5,1.57,5.15,1.57s3.39-.53,5.15-1.57c.22-.13.46-.28.69-.43.4-.27.8-.56,1.19-.86l.18-.15c.23-.18.47-.39.76-.64.23-.21.45-.41.65-.6.05-.05.09-.09.14-.14.24-.24.48-.48.7-.72.1-.11.2-.21.28-.31,0,0,0,0,0,0,.31-.34.55-.63.71-.84-.16-.2-.41-.5-.72-.84l-.06-.06c-.07-.08-.15-.17-.23-.25,0,0-.01-.01-.02-.02-.23-.24-.45-.47-.68-.69-.05-.05-.09-.09-.14-.13,0,0,0,0,0,0-.19-.19-.41-.39-.64-.6-.26-.24-.51-.45-.76-.65l-.19-.15c-.4-.31-.8-.6-1.18-.86-.22-.14-.45-.29-.69-.43-1.76-1.04-3.49-1.57-5.15-1.57s-3.39.53-5.15,1.57c-.24.14-.47.29-.69.43-.39.26-.79.55-1.19.86l-.18.15c-.25.2-.49.41-.76.64-.24.21-.46.41-.65.6ZM282.15,223.8c3.41,0,6.19,2.78,6.19,6.19s-2.78,6.19-6.19,6.19-6.19-2.78-6.19-6.19,2.78-6.19,6.19-6.19Z"/>
          <path class="cls-22" d="M270.95,230.74c6.54,7.86,14.1,8.98,21.33,1.22.44-.61,1.86-1.64,1.43-2.3-.16-.15-1.51-1.88-2.05-2.31-5.11-5.18-11.34-6.47-17.19-1.61-1.02.8-1.97,1.71-2.84,2.68-1.03,1.34-1.58,1.23-.68,2.31ZM274.94,226.73c6.41-5.52,12.88-2.65,17.67,3.25-6.82,8.27-14.1,8.27-20.92,0,.89-1.11,2.11-2.34,3.25-3.25Z"/>
          <circle class="cls-17" cx="282.15" cy="229.98" r="6.19"/>
          <path class="cls-22" d="M279.3,229.98c0,1.58,1.28,2.85,2.85,2.85s2.85-1.28,2.85-2.85-1.28-2.85-2.85-2.85-2.85,1.28-2.85,2.85Z"/>
        </g>
        <rect class="cls-1" x="26.15" y="92.85" width="514.63" height="381.23"/>
      </g>
    </g>
  </g>
</svg>